<svg width="22" height="22" viewBox="0 0 22 22" fill="none" xmlns="http://www.w3.org/2000/svg">
<path fill-rule="evenodd" clip-rule="evenodd" d="M3.87615 2.57304L3.66891 4.91652C3.62746 5.36609 4.01085 5.73913 4.49785 5.73913H20.3618C20.797 5.73913 21.1597 5.43304 21.1908 5.0313C21.3255 3.33826 19.9266 1.96087 18.0926 1.96087H5.35789C5.25427 1.54 5.04703 1.13826 4.72581 0.803478C4.20772 0.296522 3.4824 0 2.73634 0H0.933387C0.508552 0 0.15625 0.325217 0.15625 0.717391C0.15625 1.10956 0.508552 1.43478 0.933387 1.43478H2.73634C3.05756 1.43478 3.35805 1.55913 3.57565 1.76956C3.79325 1.98956 3.89687 2.27652 3.87615 2.57304ZM10.2003 20.087C10.2003 21.1436 9.34377 22.0001 8.28723 22.0001C7.23068 22.0001 6.37418 21.1436 6.37418 20.087C6.37418 19.0305 7.23068 18.174 8.28723 18.174C9.34377 18.174 10.2003 19.0305 10.2003 20.087ZM17.8514 20.087C17.8514 21.1436 16.9949 22.0001 15.9383 22.0001C14.8818 22.0001 14.0253 21.1436 14.0253 20.087C14.0253 19.0305 14.8818 18.174 15.9383 18.174C16.9949 18.174 17.8514 19.0305 17.8514 20.087ZM4.66849 7.65246H19.9325C20.4002 7.65246 20.7584 8.05942 20.7186 8.53942L20.3902 13.4125C20.2808 14.9777 18.9673 16.2612 17.4747 16.2612H6.40982C4.70829 16.2612 3.37493 14.7377 3.51423 12.9533L3.87245 8.4142C3.91225 7.98638 4.25057 7.65246 4.66849 7.65246Z" fill="white"/>
</svg>
